<svg width="142" height="40" viewBox="0 0 142 40" fill="none" xmlns="http://www.w3.org/2000/svg">
<path d="M119.515 19.0217L119.596 19.4786C119.692 20.0225 120.21 20.3856 120.754 20.2897L124.79 19.5782C125.174 19.5104 125.483 19.2256 125.583 18.8484L126.419 15.6782C126.637 14.8533 127.721 14.6622 128.207 15.3629L131.286 19.7968C131.702 20.3963 131.357 21.2253 130.638 21.352L80.4766 30.1969C80.0993 30.2634 79.7171 30.1085 79.4926 29.798L76.5283 25.6979C76.0343 25.0146 74.9684 25.2118 74.7515 26.0266L73.7173 29.9122C73.6464 30.1784 73.6886 30.4622 73.8338 30.6964L76.8677 35.5894C77.0832 35.9369 77.4886 36.1182 77.8913 36.0472L140.582 24.993C140.958 24.9269 141.208 24.5692 141.142 24.1941C141.124 24.0902 141.082 23.9919 141.019 23.9068L125.813 3.11061C125.324 2.44289 124.283 2.62291 124.047 3.41576L119.541 18.5629C119.497 18.7117 119.488 18.8688 119.515 19.0217Z" fill="white" stroke="#151616"/>
<path d="M115.408 3.99659L116.328 6.98221C116.505 7.55704 116.138 8.15702 115.546 8.26147L114.565 8.43445C113.77 8.57453 113.46 9.54917 114.027 10.1226L117.192 13.3207C117.335 13.4653 117.43 13.65 117.465 13.8504L117.97 16.7098C118.014 16.9607 117.961 17.2189 117.821 17.4319L115.554 20.8871C115.403 21.1176 115.164 21.2755 114.892 21.3234L110.959 22.0168C110.461 22.1047 109.975 21.8062 109.829 21.3218L108.846 18.0758C108.678 17.521 109.015 16.9402 109.58 16.8111L110.877 16.515C111.653 16.3379 111.921 15.37 111.347 14.8189L107.984 11.5887C107.831 11.4417 107.729 11.25 107.692 11.0411L107.236 8.45596C107.209 8.30307 107.218 8.14601 107.262 7.99721L107.683 6.58323C107.718 6.46328 107.776 6.35109 107.853 6.25249L109.261 4.45159C109.413 4.25695 109.632 4.12552 109.875 4.08262L114.278 3.30624C114.775 3.21867 115.259 3.51463 115.408 3.99659Z" fill="white" stroke="#151616"/>
<path d="M58.7628 13.4717L60.7003 16.2778C61.1143 16.8774 60.7686 17.7043 60.0511 17.8308L58.1941 18.1583C57.4075 18.2969 57.093 19.2563 57.6447 19.8338L59.0359 21.2901C59.3311 21.5992 59.3973 22.0617 59.2005 22.4412L58.3676 24.0476C57.9863 24.783 58.6133 25.6366 59.429 25.4927L61.2552 25.1707C61.9941 25.0404 62.608 25.7401 62.3827 26.4558L61.2615 30.0171C61.1495 30.373 60.8487 30.6369 60.4813 30.7016L50.586 32.4465C50.1401 32.5251 49.7148 32.2273 49.6362 31.7814C49.6087 31.6255 49.627 31.4649 49.6888 31.3191L52.9982 23.511C53.1521 23.1478 53.0781 22.7279 52.8092 22.4392L47.0288 16.2339C46.9209 16.118 46.8488 15.9734 46.8213 15.8174C46.7427 15.3715 47.0405 14.9463 47.4864 14.8676L57.7662 13.055C58.1513 12.9871 58.5406 13.1499 58.7628 13.4717Z" fill="white" stroke="#151616"/>
<path d="M80.0046 26.8827L78.067 24.0765C77.653 23.4769 77.9987 22.6501 78.7163 22.5236L80.5732 22.1961C81.3598 22.0574 81.6744 21.0981 81.1227 20.5206L79.7315 19.0642C79.4362 18.7552 79.3701 18.2927 79.5668 17.9132L80.3997 16.3067C80.781 15.5713 80.1541 14.7178 79.3383 14.8616L77.5122 15.1836C76.7732 15.3139 76.1594 14.6142 76.3847 13.8985L77.5058 10.3373C77.6178 9.98142 77.9186 9.71751 78.286 9.65273L88.1813 7.90792C88.6273 7.82929 89.0525 8.12704 89.1311 8.57297C89.1586 8.72892 89.1404 8.88949 89.0786 9.03529L85.7692 16.8433C85.6152 17.2066 85.6892 17.6265 85.9582 17.9152L91.7385 24.1205C91.8464 24.2363 91.9185 24.381 91.946 24.5369C92.0246 24.9829 91.7269 25.4081 91.281 25.4867L81.0011 27.2993C80.6161 27.3672 80.2267 27.2045 80.0046 26.8827Z" fill="white" stroke="#151616"/>
<path d="M59.5587 4.75519L2.30268 14.851C1.57775 14.9788 1.23472 15.8196 1.66334 16.418L16.152 36.648C16.6363 37.3242 17.6864 37.148 17.9235 36.3508L22.5573 20.7724C22.6015 20.6236 22.6105 20.4665 22.5836 20.3136L22.5768 20.2753C22.4809 19.7314 21.9623 19.3682 21.4184 19.4641L17.5708 20.1426C17.1977 20.2084 16.8939 20.4792 16.7859 20.8423L15.7942 24.1764C15.5551 24.9801 14.4925 25.1504 14.0143 24.4616L10.8864 19.957C10.4702 19.3576 10.8155 18.5286 11.5342 18.4019L57.0863 10.3698C57.4666 10.3028 57.8515 10.4606 58.0751 10.7754L69.9724 27.519C70.4615 28.2074 71.5311 28.017 71.7525 27.202L76.019 11.5002C76.2112 10.7928 75.6022 10.1259 74.8803 10.2531L71.3797 10.8704C71.0123 10.9352 70.7115 11.1991 70.5995 11.5549L69.5773 14.8021C69.3311 15.5839 68.3006 15.7538 67.8165 15.0924L60.5393 5.14939C60.3142 4.84189 59.9339 4.68902 59.5587 4.75519Z" fill="white"/>
<path d="M28.3612 18.4557L25.3083 18.994C24.7644 19.0899 24.4013 19.6086 24.4972 20.1525L25.8733 27.9571L27.2495 35.7617C27.3454 36.3056 27.8641 36.6687 28.4079 36.5728L31.4609 36.0345C32.0047 35.9386 32.3679 35.42 32.272 34.8761L29.5197 19.2669C29.4238 18.723 28.9051 18.3598 28.3612 18.4557Z" fill="white"/>
<path d="M59.5587 4.75519L2.30268 14.851C1.57775 14.9788 1.23472 15.8196 1.66334 16.418L16.152 36.648C16.6363 37.3242 17.6864 37.148 17.9235 36.3508L22.5573 20.7724C22.6015 20.6236 22.6105 20.4665 22.5836 20.3136L22.5768 20.2753C22.4809 19.7314 21.9623 19.3682 21.4184 19.4641L17.5708 20.1426C17.1977 20.2084 16.8939 20.4792 16.7859 20.8423L15.7942 24.1764C15.5551 24.9801 14.4925 25.1504 14.0143 24.4616L10.8864 19.957C10.4702 19.3576 10.8155 18.5286 11.5342 18.4019L57.0863 10.3698C57.4666 10.3028 57.8515 10.4606 58.0751 10.7754L69.9724 27.519C70.4615 28.2074 71.5311 28.017 71.7525 27.202L76.019 11.5002C76.2112 10.7928 75.6022 10.1259 74.8803 10.2531L71.3797 10.8704C71.0123 10.9352 70.7115 11.1991 70.5995 11.5549L69.5773 14.8021C69.3311 15.5839 68.3006 15.7538 67.8165 15.0924L60.5393 5.14939C60.3142 4.84189 59.9339 4.68902 59.5587 4.75519Z" stroke="#151616"/>
<path d="M28.3612 18.4557L25.3083 18.994C24.7644 19.0899 24.4013 19.6086 24.4972 20.1525L25.8733 27.9571L27.2495 35.7617C27.3454 36.3056 27.8641 36.6687 28.4079 36.5728L31.4609 36.0345C32.0047 35.9386 32.3679 35.42 32.272 34.8761L29.5197 19.2669C29.4238 18.723 28.9051 18.3598 28.3612 18.4557Z" stroke="#151616"/>
<path d="M48.6352 28.368C49.1422 28.587 49.3805 29.1791 49.1063 29.6585C48.3421 30.9941 47.2424 32.1148 45.9088 32.905C44.2873 33.8657 42.4032 34.2884 40.5267 34.1126C38.6501 33.9367 36.8774 33.1713 35.4626 31.926C34.0478 30.6807 33.0636 29.0195 32.6509 27.1805C32.2383 25.3414 32.4185 23.419 33.1656 21.6886C33.9127 19.9582 35.1885 18.5088 36.81 17.5481C38.4316 16.5873 40.3156 16.1646 42.1922 16.3405C43.7355 16.4851 45.2086 17.0285 46.4701 17.9097C46.9229 18.2259 46.9604 18.8631 46.5955 19.2777L44.3788 21.7961C44.0139 22.2106 43.3846 22.2351 42.8853 21.9991C42.512 21.8226 42.1087 21.7111 41.6925 21.6721C40.9419 21.6018 40.1883 21.7708 39.5397 22.1551C38.891 22.5394 38.3807 23.1192 38.0819 23.8113C37.783 24.5035 37.711 25.2725 37.876 26.0081C38.0411 26.7437 38.4348 27.4082 39.0007 27.9063C39.5666 28.4044 40.2757 28.7106 41.0263 28.7809C41.7769 28.8513 42.5306 28.6822 43.1792 28.2979C43.5388 28.0848 43.8558 27.8117 44.1179 27.4927C44.4685 27.0659 45.048 26.8192 45.555 27.0381L48.6352 28.368Z" fill="white" stroke="#151616"/>
<path d="M90.6273 8.49201L93.4165 24.3105C93.5124 24.8544 94.031 25.2175 94.5749 25.1216L97.4186 24.6202C97.9625 24.5243 98.3256 24.0057 98.2297 23.4618L97.9726 22.0034C97.7848 20.9382 99.1865 20.3747 99.7883 21.2734L101.18 23.3515C101.4 23.6807 101.794 23.8487 102.184 23.7799L106.627 22.9966C107.17 22.9007 107.534 22.3821 107.438 21.8382L107.432 21.8065C107.404 21.6493 107.339 21.5011 107.243 21.3742L103.273 16.1631C103.043 15.8612 103.004 15.4551 103.172 15.1148L104.501 12.419C104.595 12.2282 104.626 12.0124 104.589 11.803L104.024 8.59606C103.974 8.31208 103.804 8.06354 103.557 7.91422L100.402 6.00435C100.194 5.87893 99.9486 5.83298 99.7101 5.87504L91.4384 7.33355C90.8945 7.42946 90.5314 7.94812 90.6273 8.49201Z" fill="white" stroke="#151616"/>
<path d="M97.1264 12.309L97.617 15.091C97.6577 15.3222 97.8782 15.4765 98.1093 15.4358C98.241 15.4126 98.3542 15.3287 98.4146 15.2093L99.8157 12.444C100.188 11.7089 99.5616 10.8642 98.75 11.0073L97.9376 11.1505C97.3937 11.2464 97.0305 11.7651 97.1264 12.309Z" fill="#171818" stroke="#151616"/>
</svg>
