<svg width="51" height="50" viewBox="0 0 51 50" fill="none" xmlns="http://www.w3.org/2000/svg">
<path d="M25.252 18.75V25M25.252 25V31.25M25.252 25H31.502M25.252 25H19.002M44.002 25C44.002 27.4623 43.5171 29.9005 42.5748 32.1753C41.6325 34.4502 40.2514 36.5172 38.5103 38.2582C36.7692 39.9993 34.7022 41.3805 32.4274 42.3227C30.1525 43.265 27.7143 43.75 25.252 43.75C22.7898 43.75 20.3516 43.265 18.0767 42.3227C15.8019 41.3805 13.7349 39.9993 11.9938 38.2582C10.2527 36.5172 8.87158 34.4502 7.9293 32.1753C6.98703 29.9005 6.50204 27.4623 6.50204 25C6.50204 20.0272 8.47749 15.2581 11.9938 11.7417C15.5101 8.22544 20.2792 6.25 25.252 6.25C30.2249 6.25 34.994 8.22544 38.5103 11.7417C42.0266 15.2581 44.002 20.0272 44.002 25Z" stroke="white" stroke-width="2" stroke-linecap="round" stroke-linejoin="round"/>
</svg>
