<svg width="15" height="15" viewBox="0 0 12 12" fill="none" xmlns="http://www.w3.org/2000/svg">
<path d="M3.99997 8.50015C3.37645 8.50057 2.77528 8.26797 2.31441 7.848C1.85354 7.42803 1.56625 6.85099 1.5089 6.23011C1.45154 5.60924 1.62827 4.98934 2.0044 4.49205C2.38054 3.99475 2.92893 3.65597 3.54197 3.54215C3.64965 2.96899 3.95424 2.45147 4.40308 2.0791C4.85192 1.70674 5.41678 1.50293 5.99997 1.50293C6.58316 1.50293 7.14802 1.70674 7.59686 2.0791C8.0457 2.45147 8.35029 2.96899 8.45797 3.54215C9.06896 3.65828 9.61477 3.99789 9.98889 4.49471C10.363 4.99154 10.5386 5.60993 10.4814 6.22922C10.4242 6.84852 10.1383 7.42428 9.67948 7.84416C9.22068 8.26404 8.6219 8.49792 7.99997 8.50015M4.49997 6.00015L5.99997 4.50015M5.99997 4.50015L7.49997 6.00015M5.99997 4.50015V10.5002" stroke="white" stroke-linecap="round" stroke-linejoin="round"/>
</svg>
