<svg width="21" height="20" viewBox="0 0 21 20" fill="none" xmlns="http://www.w3.org/2000/svg">
<path fill-rule="evenodd" clip-rule="evenodd" d="M4.79706 4.29296C4.98459 4.10549 5.23889 4.00017 5.50406 4.00017C5.76922 4.00017 6.02353 4.10549 6.21106 4.29296L10.5041 8.58596L14.7971 4.29296C14.8893 4.19745 14.9997 4.12127 15.1217 4.06886C15.2437 4.01645 15.3749 3.98886 15.5077 3.98771C15.6404 3.98655 15.7721 4.01186 15.895 4.06214C16.0179 4.11242 16.1296 4.18667 16.2235 4.28056C16.3173 4.37446 16.3916 4.48611 16.4419 4.60901C16.4922 4.7319 16.5175 4.86358 16.5163 4.99636C16.5152 5.12914 16.4876 5.26036 16.4352 5.38236C16.3828 5.50437 16.3066 5.61471 16.2111 5.70696L11.9181 9.99996L16.2111 14.293C16.3932 14.4816 16.494 14.7342 16.4917 14.9964C16.4895 15.2586 16.3843 15.5094 16.1989 15.6948C16.0135 15.8802 15.7627 15.9854 15.5005 15.9876C15.2383 15.9899 14.9857 15.8891 14.7971 15.707L10.5041 11.414L6.21106 15.707C6.02246 15.8891 5.76985 15.9899 5.50766 15.9876C5.24546 15.9854 4.99465 15.8802 4.80924 15.6948C4.62383 15.5094 4.51866 15.2586 4.51638 14.9964C4.51411 14.7342 4.6149 14.4816 4.79706 14.293L9.09006 9.99996L4.79706 5.70696C4.60959 5.51943 4.50427 5.26512 4.50427 4.99996C4.50427 4.73479 4.60959 4.48049 4.79706 4.29296Z" fill="white"/>
</svg>
